# File created by Blade
# Date/Time:  Tue Sep 30 19:36:50 2014
#---------------------------------------------------------
:version 1.10
:name HOM
:units
  mass 1.0
  length 1.000000
  angle deg
:documentation
     Acclaim Skeleton File
:root
   axis xyz
   order TX TY TZ RX RY RZ
   position 0.000000 0.000000 0.000000
   orientation 0 0 0
:bonedata
   begin
      id 1
      name Spine_dum
      direction 0.000000 1.000000 0.000000
      length 3.241213
      axis 0.0 0.0 0.0 xyz
   end
   begin
      id 2
      name LeftUpLeg_dum
      direction 1.000000 0.000000 0.000000
      length 3.434019
      axis 0.0 0.0 0.0 xyz
   end
   begin
      id 3
      name RightUpLeg_dum
      direction -1.000000 0.000000 0.000000
      length 3.434019
      axis 0.0 0.0 0.0 xyz
   end
   begin
      id 4
      name Spine
      direction 0.000000 1.000000 0.000000
      length 0.000000
      axis 0.0 0.0 0.0 xyz
      dof rx ry rz
   end
   begin
      id 5
      name Spine_dum1
      direction 0.000000 1.000000 0.000000
      length 18.382958
      axis 0.0 0.0 0.0 xyz
   end
   begin
      id 6
      name Spine_dum2
      direction 0.000000 1.000000 0.000000
      length 12.828261
      axis 0.0 0.0 0.0 xyz
   end
   begin
      id 7
      name Spine_dum3
      direction 0.000000 1.000000 0.000000
      length 12.828261
      axis 0.0 0.0 0.0 xyz
   end
   begin
      id 8
      name Head
      direction 0.000000 1.000000 0.000000
      length 4.527550
      axis 0.0 0.0 0.0 xyz
      dof rx ry rz
   end
   begin
      id 9
      name LeftShoulder
      direction 1.000000 0.000000 0.000000
      length 7.748055
      axis 0.0 0.0 -90.0 xyz
      dof rx ry rz
   end
   begin
      id 10
      name LeftArm
      direction 1.000000 0.000000 0.000000
      length 10.635614
      axis 0.0 0.0 -90.0 xyz
      dof rx ry rz
   end
   begin
      id 11
      name LeftForeArm
      direction 1.000000 0.000000 0.000000
      length 8.346755
      axis 0.0 0.0 -90.0 xyz
      dof ry rz rx
   end
   begin
      id 12
      name LeftHand
      direction 0.000000 0.000000 0.000000
      length 0.000000
      axis 0.0 0.0 -90.0 xyz
      dof rx ry rz
   end
   begin
      id 13
      name LeftHand_dum1
      direction 0.000000 0.000000 0.000000
      length 0.000000
      axis 0.0 0.0 -90.0 xyz
   end
   begin
      id 14
      name LeftHand_dum2
      direction 1.000000 0.000000 0.000000
      length 3.937000
      axis 0.0 0.0 -90.0 xyz
   end
   begin
      id 15
      name LeftHandThumb1
      direction 0.000000 0.000000 1.000000
      length 3.937000
      axis 0.0 0.0 -90.0 xyz
      dof rx rz ry
   end
   begin
      id 16
      name RightShoulder
      direction -1.000000 0.000000 0.000000
      length 7.748055
      axis 0.0 0.0 90.0 xyz
      dof rx ry rz
   end
   begin
      id 17
      name RightArm
      direction -1.000000 0.000000 0.000000
      length 10.635614
      axis 0.0 0.0 90.0 xyz
      dof rx ry rz
   end
   begin
      id 18
      name RightForeArm
      direction -1.000000 0.000000 0.000000
      length 8.346755
      axis 0.0 0.0 90.0 xyz
      dof ry rz rx
   end
   begin
      id 19
      name RightHand
      direction 0.000000 0.000000 0.000000
      length 0.000000
      axis 0.0 0.0 90.0 xyz
      dof rx ry rz
   end
   begin
      id 20
      name RightHand_dum1
      direction 0.000000 0.000000 0.000000
      length 0.000000
      axis 0.0 0.0 90.0 xyz
   end
   begin
      id 21
      name RightHand_dum2
      direction -1.000000 0.000000 0.000000
      length 3.937000
      axis 0.0 0.0 90.0 xyz
   end
   begin
      id 22
      name RightHandThumb1
      direction 0.000000 0.000000 1.000000
      length 3.937000
      axis 0.0 0.0 90.0 xyz
      dof rx rz ry
   end
   begin
      id 23
      name LeftUpLeg
      direction 0.000000 -1.000000 0.000000
      length 15.713025
      axis 0.0 0.0 0.0 xyz
      dof rx ry rz
   end
   begin
      id 24
      name LeftLeg
      direction 0.000000 -1.000000 0.000000
      length 14.435119
      axis 0.0 0.0 0.0 xyz
      dof rx ry rz
   end
   begin
      id 25
      name LeftFoot
      direction 0.000000 -0.258819 0.965926
      length 4.938895
      axis 15.0 0.0 0.0 xyz
      dof rx ry rz
   end
   begin
      id 26
      name LeftToeBase
      direction 0.000000 0.000000 1.000000
      length 2.952750
      axis 0.0 0.0 0.0 xyz
      dof rx ry rz
   end
   begin
      id 27
      name RightUpLeg
      direction 0.000000 -1.000000 0.000000
      length 15.713025
      axis 0.0 0.0 0.0 xyz
      dof rx ry rz
   end
   begin
      id 28
      name RightLeg
      direction 0.000000 -1.000000 0.000000
      length 14.435119
      axis 0.0 0.0 0.0 xyz
      dof rx ry rz
   end
   begin
      id 29
      name RightFoot
      direction 0.000000 -0.258819 0.965926
      length 4.938895
      axis 15.0 0.0 0.0 xyz
      dof rx ry rz
   end
   begin
      id 30
      name RightToeBase
      direction 0.000000 0.000000 1.000000
      length 2.952750
      axis 0.0 0.0 0.0 xyz
      dof rx ry rz
   end
:hierarchy
   begin
      root Spine_dum LeftUpLeg_dum RightUpLeg_dum
      Spine_dum Spine
      LeftUpLeg_dum LeftUpLeg
      RightUpLeg_dum RightUpLeg
      Spine Spine_dum1 Spine_dum2 Spine_dum3
      Spine_dum1 Head
      Spine_dum2 LeftShoulder
      Spine_dum3 RightShoulder
      LeftShoulder LeftArm
      LeftArm LeftForeArm
      LeftForeArm LeftHand
      LeftHand LeftHand_dum1 LeftHand_dum2
      LeftHand_dum1 LeftHandThumb1
      RightShoulder RightArm
      RightArm RightForeArm
      RightForeArm RightHand
      RightHand RightHand_dum1 RightHand_dum2
      RightHand_dum1 RightHandThumb1
      LeftUpLeg LeftLeg
      LeftLeg LeftFoot
      LeftFoot LeftToeBase
      RightUpLeg RightLeg
      RightLeg RightFoot
      RightFoot RightToeBase
   end

# File created by Blade
# Date/Time:  Tue Sep 23 19:06:47 2014
# Frame Rate: 120.000 fps
#------------------------------------------------------
:FULLY-SPECIFIED
:DEGREES
35
root -1.868648 32.434833 -3.764620 32.706815 4.884387 0.092553
Spine -38.293325 -4.945878 2.987464
Head 9.264080 -2.401224 -4.199510
LeftShoulder -20.378784 37.351874 26.308542
LeftArm 57.824403 -47.672267 -51.918402
LeftForeArm 90.866637 -0.000000 -17.610903
LeftHand 0.742632 0.000000 56.929462
LeftHandThumb1 -26.253704 0.000000 33.147579
RightShoulder -18.557434 -37.649996 -25.245260
RightArm 48.237668 27.254276 48.959133
RightForeArm 14.009818 0.000000 -5.914951
RightHand 9.405578 -0.000000 5.979127
RightHandThumb1 -24.326973 -0.000000 -32.862282
LeftUpLeg -28.341310 0.182144 1.482669
LeftLeg 0.657661 -0.000000 -0.000000
LeftFoot -6.843393 -3.460218 -2.155976
LeftToeBase 5.482609 -0.000000 -0.000000
RightUpLeg -26.847618 -7.026207 5.197502
RightLeg -3.063565 -0.000000 0.000000
RightFoot -6.572476 -2.352034 -0.367439
RightToeBase 11.740996 -0.000000 -0.000000
36
root -1.856825 32.435191 -3.767111 32.717871 4.888398 0.088242
Spine -38.295596 -4.933602 2.985162
Head 9.215057 -2.366241 -4.228734
LeftShoulder -20.369709 37.299815 26.362309
LeftArm 57.733948 -47.737590 -51.711346
LeftForeArm 91.038946 -0.000000 -17.599636
LeftHand 0.571042 -0.000000 56.964572
LeftHandThumb1 -26.253704 0.000000 33.147579
RightShoulder -18.521842 -37.545081 -25.324208
RightArm 48.168304 27.196170 48.813044
RightForeArm 13.969837 -0.000000 -5.933344
RightHand 9.394961 -0.000000 5.952732
RightHandThumb1 -24.326973 -0.000000 -32.862282
LeftUpLeg -28.347196 0.177783 1.468238
LeftLeg 0.638711 -0.000000 -0.000000
LeftFoot -6.830789 -3.474492 -2.169555
LeftToeBase 5.492370 -0.000000 -0.000000
RightUpLeg -26.873538 -7.056610 5.197914
RightLeg -3.044727 -0.000000 0.000000
RightFoot -6.581502 -2.333336 -0.349193
RightToeBase 11.767213 -0.000000 -0.000000
37
root -1.844671 32.435432 -3.770183 32.744230 4.888555 0.085923
Spine -38.312025 -4.924663 2.987788
Head 9.158220 -2.315967 -4.263990
LeftShoulder -20.399591 37.298718 26.381102
LeftArm 57.679101 -47.789604 -51.525659
LeftForeArm 90.991682 -0.000000 -17.563274
LeftHand 0.566486 -0.000000 56.980811
LeftHandThumb1 -26.253704 0.000000 33.147579
RightShoulder -18.527931 -37.536918 -25.341752
RightArm 48.198361 27.246612 48.722489
RightForeArm 13.914865 0.000000 -5.910325
RightHand 9.335138 -0.000000 6.054448
RightHandThumb1 -24.326973 -0.000000 -32.862282
LeftUpLeg -28.376608 0.169912 1.453001
LeftLeg 0.637726 -0.000000 -0.000000
LeftFoot -6.841725 -3.489356 -2.177644
LeftToeBase 5.545099 -0.000000 -0.000000
RightUpLeg -26.911815 -7.061610 5.182287
RightLeg -3.032589 -0.000000 0.000000
RightFoot -6.568468 -2.327453 -0.339776
RightToeBase 11.738718 -0.000000 -0.000000
38
root -1.833889 32.436224 -3.772500 32.762569 4.906940 0.070578
Spine -38.322542 -4.909642 3.004517
Head 9.098674 -2.295682 -4.309296
LeftShoulder -20.398289 37.273470 26.398030
LeftArm 57.590680 -47.841253 -51.281464
LeftForeArm 90.892972 -0.000000 -17.576057
LeftHand 0.618570 0.000000 57.008290
LeftHandThumb1 -26.253704 0.000000 33.147579
RightShoulder -18.536968 -37.502782 -25.365008
RightArm 48.204358 27.254593 48.598328
RightForeArm 13.735571 0.000000 -5.929275
RightHand 9.324360 -0.000000 5.877524
RightHandThumb1 -24.326973 -0.000000 -32.862282
LeftUpLeg -28.401625 0.164818 1.455364
LeftLeg 0.638576 -0.000000 -0.000000
LeftFoot -6.833430 -3.512328 -2.189598
LeftToeBase 5.525812 -0.000000 -0.000000
RightUpLeg -26.953210 -7.107596 5.208814
RightLeg -2.999016 -0.000000 0.000000
RightFoot -6.578333 -2.300590 -0.367423
RightToeBase 11.751577 -0.000000 -0.000000
39
root -1.819977 32.436467 -3.773682 32.772511 4.927861 0.066929
Spine -38.324203 -4.903544 3.018128
Head 9.038327 -2.252071 -4.350515
LeftShoulder -20.391230 37.254576 26.436225
LeftArm 57.414947 -47.805626 -50.967057
LeftForeArm 90.949693 -0.000000 -17.593597
LeftHand 0.455955 -0.000000 57.155449
LeftHandThumb1 -26.253704 0.000000 33.147579
RightShoulder -18.555854 -37.484432 -25.368008
RightArm 48.187583 27.236723 48.382093
RightForeArm 13.891093 -0.000000 -5.968336
RightHand 9.299384 -0.000000 6.049226
RightHandThumb1 -24.326973 -0.000000 -32.862282
LeftUpLeg -28.413090 0.165411 1.433924
LeftLeg 0.635482 -0.000000 -0.000000
LeftFoot -6.832501 -3.537495 -2.188367
LeftToeBase 5.523469 -0.000000 -0.000000
RightUpLeg -26.968488 -7.143114 5.203746
RightLeg -2.989143 -0.000000 0.000000
RightFoot -6.576707 -2.281141 -0.301310
RightToeBase 11.750983 -0.000000 -0.000000
40
root -1.807289 32.436409 -3.778817 32.796549 4.946292 0.085902
Spine -38.327999 -4.909471 3.002693
Head 8.966439 -2.214361 -4.366055
LeftShoulder -20.408737 37.277941 26.466210
LeftArm 57.393466 -47.840318 -50.846103
LeftForeArm 90.784202 -0.000000 -17.565224
LeftHand 0.535640 0.000000 57.114709
LeftHandThumb1 -26.253704 0.000000 33.147579
RightShoulder -18.563277 -37.457555 -25.388841
RightArm 48.174475 27.259923 48.248098
RightForeArm 13.793918 0.000000 -5.951865
RightHand 9.134424 -0.000000 6.107261
RightHandThumb1 -24.326973 -0.000000 -32.862282
LeftUpLeg -28.451409 0.140061 1.403907
LeftLeg 0.646122 -0.000000 -0.000000
LeftFoot -6.822671 -3.568682 -2.188367
LeftToeBase 5.526728 -0.000000 -0.000000
RightUpLeg -26.955979 -7.068868 5.119330
RightLeg -3.062156 -0.000000 0.000000
RightFoot -6.542175 -2.378871 -0.247905
RightToeBase 11.759611 -0.000000 -0.000000
41
root -1.792620 32.436646 -3.781161 32.803278 4.960962 0.091969
Spine -38.319770 -4.890978 3.000188
Head 8.899103 -2.194190 -4.417112
LeftShoulder -20.412841 37.252925 26.477360
LeftArm 57.266064 -47.818913 -50.585084
LeftForeArm 90.752795 -0.000000 -17.542630
LeftHand 0.595456 -0.000000 57.124535
LeftHandThumb1 -26.253704 0.000000 33.147579
RightShoulder -18.559486 -37.410941 -25.434735
RightArm 48.127447 27.297629 48.146961
RightForeArm 13.686818 -0.000000 -5.918227
RightHand 9.125857 -0.000000 5.966112
RightHandThumb1 -24.326973 -0.000000 -32.862282
LeftUpLeg -28.463149 0.119355 1.379560
LeftLeg 0.648507 -0.000000 -0.000000
LeftFoot -6.821436 -3.573610 -2.151483
LeftToeBase 5.519129 -0.000000 -0.000000
RightUpLeg -26.962284 -7.080000 5.090844
RightLeg -3.069002 -0.000000 0.000000
RightFoot -6.531709 -2.400507 -0.224931
RightToeBase 11.748578 -0.000000 -0.000000
42
root -1.779270 32.437926 -3.785179 32.830281 4.999327 0.093775
Spine -38.330630 -4.890468 3.010215
Head 8.832273 -2.169186 -4.452306
LeftShoulder -20.412391 37.258979 26.500310
LeftArm 57.180331 -47.775119 -50.406516
LeftForeArm 90.833930 -0.000000 -17.525503
LeftHand 0.247200 -0.000000 57.288232
LeftHandThumb1 -26.253704 0.000000 33.147579
RightShoulder -18.592679 -37.412918 -25.420310
RightArm 48.104633 27.287285 47.955208
RightForeArm 13.706365 -0.000000 -5.885211
RightHand 9.073494 0.000000 5.937248
RightHandThumb1 -24.326973 -0.000000 -32.862282
LeftUpLeg -28.509181 0.081041 1.373552
LeftLeg 0.666100 -0.000000 -0.000000
LeftFoot -6.812998 -3.579905 -2.131323
LeftToeBase 5.516393 -0.000000 -0.000000
RightUpLeg -27.019927 -7.153012 5.109887
RightLeg -3.019924 -0.000000 0.000000
RightFoot -6.550501 -2.372080 -0.223916
RightToeBase 11.745822 -0.000000 -0.000000
43
root -1.764818 32.438810 -3.789903 32.858505 5.040411 0.095781
Spine -38.336462 -4.879774 3.022734
Head 8.748356 -2.140346 -4.511903
LeftShoulder -20.412870 37.252872 26.521633
LeftArm 56.929559 -47.628408 -50.070588
LeftForeArm 90.528754 -0.000000 -17.375821
LeftHand 0.357610 -0.000000 57.214475
LeftHandThumb1 -26.253704 0.000000 33.147579
RightShoulder -18.645721 -37.405621 -25.398964
RightArm 48.093937 27.306673 47.780615
RightForeArm 13.698837 0.000000 -5.885406
RightHand 9.056160 -0.000000 5.896265
RightHandThumb1 -24.326973 -0.000000 -32.862282
LeftUpLeg -28.562456 0.051636 1.360326
LeftLeg 0.691071 -0.000000 -0.000000
LeftFoot -6.809388 -3.596359 -2.110153
LeftToeBase 5.511731 -0.000000 -0.000000
RightUpLeg -27.066132 -7.197445 5.111019
RightLeg -2.993512 -0.000000 0.000000
RightFoot -6.552246 -2.373699 -0.220809
RightToeBase 11.741636 -0.000000 -0.000000
44
root -1.747555 32.439079 -3.791751 32.857258 5.060237 0.103819
Spine -38.322255 -4.861145 3.020643
Head 8.691953 -2.102611 -4.549001
LeftShoulder -20.411821 37.271308 26.525940
LeftArm 56.942836 -47.613473 -50.028477
LeftForeArm 91.121717 -0.000000 -17.363928
LeftHand -0.487043 -0.000000 57.548599
LeftHandThumb1 -26.253704 0.000000 33.147579
RightShoulder -18.638972 -37.368562 -25.408543
RightArm 47.999662 27.340943 47.611300
RightForeArm 13.640273 -0.000000 -5.826303
RightHand 9.059608 -0.000000 5.768645
RightHandThumb1 -24.326973 -0.000000 -32.862282
LeftUpLeg -28.565049 0.013124 1.337020
LeftLeg 0.692078 -0.000000 -0.000000
LeftFoot -6.817102 -3.584118 -2.086904
LeftToeBase 5.557389 -0.000000 -0.000000
RightUpLeg -27.061202 -7.215898 5.076640
RightLeg -2.999151 -0.000000 0.000000
RightFoot -6.550953 -2.385729 -0.174137
RightToeBase 11.735337 -0.000000 -0.000000
45
root -1.731058 32.439208 -3.794375 32.852216 5.093337 0.116969
Spine -38.297868 -4.848638 3.015062
Head 8.625536 -2.074133 -4.586438
LeftShoulder -20.416679 37.282879 26.526759
LeftArm 56.852145 -47.505735 -49.884392
LeftForeArm 91.317310 0.000000 -17.259028
LeftHand -0.953520 -0.000000 57.687925
LeftHandThumb1 -26.253704 0.000000 33.147579
RightShoulder -18.666745 -37.360186 -25.392798
RightArm 47.905012 27.333280 47.414047
RightForeArm 13.588632 -0.000000 -5.749274
RightHand 9.173717 -0.000000 5.661643
RightHandThumb1 -24.326973 -0.000000 -32.862282
LeftUpLeg -28.574091 -0.048551 1.321003
LeftLeg 0.710039 -0.000000 -0.000000
LeftFoot -6.819704 -3.556798 -2.060253
LeftToeBase 5.559847 -0.000000 -0.000000
RightUpLeg -27.053594 -7.260747 5.053237
RightLeg -3.009099 -0.000000 0.000000
RightFoot -6.554342 -2.390195 -0.150526
RightToeBase 11.757953 -0.000000 -0.000000
46
root -1.716081 32.439979 -3.797519 32.857977 5.141135 0.126105
Spine -38.287441 -4.845465 3.020737
Head 8.567982 -2.061490 -4.628050
LeftShoulder -20.426078 37.319115 26.514386
LeftArm 56.595959 -47.286264 -49.566736
LeftForeArm 91.039258 -0.000000 -17.037556
LeftHand -1.089508 0.000000 57.778357
LeftHandThumb1 -26.253704 0.000000 33.147579
RightShoulder -18.661233 -37.334334 -25.409032
RightArm 47.799485 27.363033 47.292413
RightForeArm 13.516021 -0.000000 -5.646658
RightHand 9.193146 0.000000 5.493899
RightHandThumb1 -24.326973 -0.000000 -32.862282
LeftUpLeg -28.596889 -0.118461 1.325766
LeftLeg 0.726859 -0.000000 -0.000000
LeftFoot -6.854826 -3.529508 -2.168205
LeftToeBase 5.769877 -0.000000 -0.000000
RightUpLeg -27.085134 -7.355658 5.073301
RightLeg -2.967340 -0.000000 0.000000
RightFoot -6.569808 -2.363328 -0.178831
RightToeBase 11.716889 -0.000000 -0.000000
